<?xml version="1.0" encoding="utf-8"?>
<svg viewBox="0 0 210 297" width="210px" height="297px" xmlns="http://www.w3.org/2000/svg">
  <path style="fill: rgb(255, 174, 0);" d="M -0.136 29.747 C 4.22 18.998 24.48 62.509 55.301 62.875 C 77.482 63.138 96.937 12.88 119.012 9.504 C 149.517 4.839 209.617 26.805 209.617 26.805 L 210.504 -0.066 L -0.51 -0.185 L -0.136 29.747 Z"/>
  <path style="fill: rgb(216, 216, 216); stroke: rgb(0, 0, 0);"/>
  <path style="fill: rgb(255, 174, 0);" d="M -0.357 264.241 C 3.999 253.492 24.259 297.003 55.08 297.369 C 77.261 297.632 96.716 247.374 118.791 243.998 C 149.296 239.333 209.396 261.299 209.396 261.299 L 210.283 234.428 L -0.731 234.309 L -0.357 264.241 Z" transform="matrix(-1, 0, 0, -1, 209.552008, 531.679031)"/>
</svg>